<?xml version="1.0" standalone="no"?>
<!DOCTYPE svg PUBLIC "-//W3C//DTD SVG 20010904//EN"
 "http://www.w3.org/TR/2001/REC-SVG-20010904/DTD/svg10.dtd">
<svg version="1.0" xmlns="http://www.w3.org/2000/svg"
 width="260.000000pt" height="260.000000pt" viewBox="0 0 260.000000 260.000000"
 preserveAspectRatio="xMidYMid meet">
<metadata>
Created by potrace 1.14, written by Peter Selinger 2001-2017
</metadata>
<g transform="translate(0.000000,260.000000) scale(0.100000,-0.100000)"
fill="#000000" stroke="none">
<path d="M1373 2535 c-45 -32 -76 -219 -98 -595 -3 -41 -7 -106 -10 -145 -5
-68 -8 -123 -20 -315 -3 -52 -8 -120 -10 -150 -2 -30 -7 -106 -10 -168 -4 -62
-8 -131 -10 -155 -4 -50 -18 -273 -18 -304 -1 -31 -11 -18 -13 15 -2 50 -15
227 -19 262 -2 19 -7 76 -10 125 -3 50 -8 113 -10 140 -3 28 -7 86 -10 130 -9
133 -19 252 -30 360 -2 22 -7 72 -11 110 -3 39 -8 79 -10 90 -2 10 -6 37 -9
60 -17 123 -56 185 -114 185 -72 -1 -99 -70 -136 -345 -20 -154 -29 -229 -40
-325 -6 -55 -15 -126 -21 -160 -2 -14 -6 -45 -9 -70 -8 -63 -24 -153 -28 -157
-2 -1 -16 41 -32 94 -56 196 -110 273 -190 273 -46 0 -85 -23 -148 -89 -27
-27 -58 -51 -70 -53 -12 -2 -54 3 -92 11 -89 18 -122 10 -140 -32 -11 -27 -11
-36 1 -59 15 -28 20 -31 99 -49 140 -31 206 -16 295 67 28 26 52 45 53 43 8
-10 49 -134 82 -249 41 -142 74 -206 113 -221 31 -12 77 -5 96 14 32 32 67
133 81 237 3 25 8 52 10 60 2 8 11 71 20 140 9 69 18 136 20 150 2 14 9 76 16
137 7 62 15 111 18 108 5 -6 6 -9 16 -145 3 -52 8 -108 10 -125 3 -16 7 -68
10 -115 13 -198 16 -237 20 -280 3 -25 7 -85 10 -135 3 -49 8 -115 10 -145 3
-30 7 -86 10 -125 3 -38 8 -90 10 -115 2 -25 7 -76 10 -115 4 -38 8 -81 10
-95 3 -14 7 -47 10 -75 13 -111 44 -180 85 -185 62 -9 96 25 115 115 22 109
46 365 70 756 6 104 10 173 20 314 8 130 13 217 20 325 11 200 24 352 29 358
2 1 6 -48 10 -110 4 -62 9 -131 11 -153 4 -39 10 -124 20 -275 3 -41 7 -102
10 -135 3 -33 7 -91 10 -130 3 -38 7 -92 10 -120 2 -27 7 -81 11 -120 3 -38 8
-83 10 -100 2 -16 6 -55 10 -85 7 -68 30 -177 43 -212 21 -56 93 -76 132 -37
24 24 45 70 53 119 3 19 8 46 11 60 3 14 7 43 10 65 3 22 10 67 15 100 5 33
12 85 15 115 3 30 8 66 10 80 2 14 7 50 10 80 4 30 13 107 21 170 8 63 17 133
20 155 2 22 8 54 13 70 l8 30 13 -45 c73 -257 119 -330 210 -330 44 0 66 14
137 82 66 66 71 67 167 49 33 -6 67 -11 76 -11 27 0 60 38 60 69 0 47 -27 68
-109 84 -137 28 -194 13 -278 -70 -41 -39 -48 -43 -58 -29 -7 8 -31 80 -54
158 -73 249 -106 308 -172 308 -40 0 -85 -43 -103 -98 -18 -55 -51 -220 -61
-302 -3 -30 -8 -66 -10 -80 -5 -31 -13 -90 -20 -155 -3 -27 -8 -63 -10 -80 -2
-16 -7 -59 -11 -95 -7 -71 -14 -90 -15 -44 0 16 -2 36 -3 44 -2 8 -7 56 -10
105 -4 50 -9 110 -11 135 -2 25 -7 88 -10 140 -4 52 -8 111 -10 130 -2 19 -6
80 -10 135 -4 55 -8 120 -10 145 -6 94 -16 216 -20 250 -2 19 -7 73 -10 120
-3 47 -8 96 -10 110 -2 14 -7 54 -10 90 -10 100 -31 190 -53 219 -23 31 -76
39 -109 16z"/>
</g>
</svg>
